HIERARCHY
ROOT hip
{
  OFFSET 0 0 0
  CHANNELS 6 Xposition Yposition Zposition Zrotation Yrotation Xrotation
  JOINT abdomen
  {
    OFFSET 0 20.6881 -0.73152
    CHANNELS 3 Zrotation Xrotation Yrotation
    JOINT chest
    {
      OFFSET 0 11.7043 -0.48768
      CHANNELS 3 Zrotation Xrotation Yrotation
      JOINT neck
      {
        OFFSET 0 22.1894 -2.19456
        CHANNELS 3 Zrotation Xrotation Yrotation
        JOINT head
        {
          OFFSET -0.24384 7.07133 1.2192
          CHANNELS 3 Zrotation Xrotation Yrotation
          JOINT leftEye
          {
            OFFSET 4.14528 8.04674 8.04672
            CHANNELS 3 Zrotation Xrotation Yrotation
            End Site
            {
              OFFSET 1 0 0
            }
          }
          JOINT rightEye
          {
            OFFSET -3.6576 8.04674 8.04672
            CHANNELS 3 Zrotation Xrotation Yrotation
            End Site
            {
              OFFSET 1 0 0
            }
          }
        }
      }
      JOINT rCollar
      {
        OFFSET -2.68224 19.2634 -4.8768
        CHANNELS 3 Zrotation Xrotation Yrotation
        JOINT rShldr
        {
          OFFSET -8.77824 -1.95073 1.46304
          CHANNELS 3 Zrotation Xrotation Yrotation
          JOINT rForeArm
          {
            OFFSET -28.1742 -1.7115 0.48768
            CHANNELS 3 Zrotation Xrotation Yrotation
            JOINT rHand
            {
              OFFSET -22.5879 0.773209 7.07136
              CHANNELS 3 Zrotation Xrotation Yrotation
              JOINT rThumb1
              {
                OFFSET -1.2192 -0.487915 3.41376
                CHANNELS 3 Zrotation Xrotation Yrotation
                JOINT rThumb2
                {
                  OFFSET -3.37035 -0.52449 3.41376
                  CHANNELS 3 Zrotation Xrotation Yrotation
                  End Site
                  {
                    OFFSET -1.78271 -1.18214 1.43049
                  }
                }
              }
              JOINT rIndex1
              {
                OFFSET -7.75947 0.938293 5.60832
                CHANNELS 3 Zrotation Xrotation Yrotation
                JOINT rIndex2
                {
                  OFFSET -2.54057 -0.884171 1.56538
                  CHANNELS 3 Zrotation Xrotation Yrotation
                  End Site
                  {
                    OFFSET -1.62519 -0.234802 1.16502
                  }
                }
              }
              JOINT rMid1
              {
                OFFSET -8.24714 1.18213 3.41376
                CHANNELS 3 Zrotation Xrotation Yrotation
                JOINT rMid2
                {
                  OFFSET -3.10165 -0.590103 1.0647
                  CHANNELS 3 Zrotation Xrotation Yrotation
                  End Site
                  {
                    OFFSET -2.48547 -0.328903 0.83742
                  }
                }
              }
              JOINT rRing1
              {
                OFFSET -8.82822 0.546677 1.51678
                CHANNELS 3 Zrotation Xrotation Yrotation
                JOINT rRing2
                {
                  OFFSET -2.60934 -0.819778 -0.0198488
                  CHANNELS 3 Zrotation Xrotation Yrotation
                  End Site
                  {
                    OFFSET -2.33842 -0.294052 0.168128
                  }
                }
              }
              JOINT rPinky1
              {
                OFFSET -8.27202 -0.0477905 -0.4584
                CHANNELS 3 Zrotation Xrotation Yrotation
                JOINT rPinky2
                {
                  OFFSET -1.82734 -0.647385 -0.700984
                  CHANNELS 3 Zrotation Xrotation Yrotation
                  End Site
                  {
                    OFFSET -1.69225 -0.51767 -0.607171
                  }
                }
              }
            }
          }
        }
      }
      JOINT lCollar
      {
        OFFSET 2.68224 19.2634 -4.8768
        CHANNELS 3 Zrotation Xrotation Yrotation
        JOINT lShldr
        {
          OFFSET 8.77824 -1.95073 1.46304
          CHANNELS 3 Zrotation Xrotation Yrotation
          JOINT lForeArm
          {
            OFFSET 28.1742 -1.7115 0.48768
            CHANNELS 3 Zrotation Xrotation Yrotation
            JOINT lHand
            {
              OFFSET 22.5879 0.773209 7.07136
              CHANNELS 3 Zrotation Xrotation Yrotation
              JOINT lThumb1
              {
                OFFSET 1.2192 -0.487915 3.41376
                CHANNELS 3 Zrotation Xrotation Yrotation
                JOINT lThumb2
                {
                  OFFSET 3.37035 -0.52449 3.41376
                  CHANNELS 3 Zrotation Xrotation Yrotation
                  End Site
                  {
                    OFFSET 1.78271 -1.18214 1.43049
                  }
                }
              }
              JOINT lIndex1
              {
                OFFSET 7.75947 0.938293 5.60832
                CHANNELS 3 Zrotation Xrotation Yrotation
                JOINT lIndex2
                {
                  OFFSET 2.54057 -0.884171 1.56538
                  CHANNELS 3 Zrotation Xrotation Yrotation
                  End Site
                  {
                    OFFSET 1.62519 -0.234802 1.16502
                  }
                }
              }
              JOINT lMid1
              {
                OFFSET 8.24714 1.18213 3.41376
                CHANNELS 3 Zrotation Xrotation Yrotation
                JOINT lMid2
                {
                  OFFSET 3.10165 -0.590103 1.0647
                  CHANNELS 3 Zrotation Xrotation Yrotation
                  End Site
                  {
                    OFFSET 2.48547 -0.328903 0.83742
                  }
                }
              }
              JOINT lRing1
              {
                OFFSET 8.82822 0.546677 1.51678
                CHANNELS 3 Zrotation Xrotation Yrotation
                JOINT lRing2
                {
                  OFFSET 2.60934 -0.819778 -0.0198488
                  CHANNELS 3 Zrotation Xrotation Yrotation
                  End Site
                  {
                    OFFSET 2.33842 -0.294052 0.168128
                  }
                }
              }
              JOINT lPinky1
              {
                OFFSET 8.27202 -0.0477905 -0.4584
                CHANNELS 3 Zrotation Xrotation Yrotation
                JOINT lPinky2
                {
                  OFFSET 1.82734 -0.647385 -0.700984
                  CHANNELS 3 Zrotation Xrotation Yrotation
                  End Site
                  {
                    OFFSET 1.69225 -0.51767 -0.607171
                  }
                }
              }
            }
          }
        }
      }
    }
  }
  JOINT rButtock
  {
    OFFSET -8.77824 4.35084 1.2192
    CHANNELS 3 Zrotation Xrotation Yrotation
    JOINT rThigh
    {
      OFFSET 0 -1.70687 -2.19456
      CHANNELS 3 Zrotation Xrotation Yrotation
      JOINT rShin
      {
        OFFSET 0 -36.8199 0.73152
        CHANNELS 3 Zrotation Xrotation Yrotation
        JOINT rFoot
        {
          OFFSET 0.73152 -45.1104 -5.12064
          CHANNELS 3 Zrotation Xrotation Yrotation
          End Site
          {
            OFFSET -1.1221 -3.69964 12.103
          }
        }
      }
    }
  }
  JOINT lButtock
  {
    OFFSET 8.77824 4.35084 1.2192
    CHANNELS 3 Zrotation Xrotation Yrotation
    JOINT lThigh
    {
      OFFSET 0 -1.70687 -2.19456
      CHANNELS 3 Zrotation Xrotation Yrotation
      JOINT lShin
      {
        OFFSET 0 -36.8199 0.73152
        CHANNELS 3 Zrotation Xrotation Yrotation
        JOINT lFoot
        {
          OFFSET -0.73152 -45.1104 -5.12064
          CHANNELS 3 Zrotation Xrotation Yrotation
          End Site
          {
            OFFSET 1.1221 -3.69964 12.103
          }
        }
      }
    }
  }
}
MOTION
Frames:	4
Frame Time:	0.03333
0.02172386273741722 51.85097885131836 0.31402504444122314 -42.737422585487366 -19.644186347723007 -18.890615701675415 -3.1710224971175194 25.05328595638275 -2.880186550319195 0.3204173594713211 -5.87619423866272 -7.063999772071838 -5.394841656088829 16.706699430942535 -15.937427133321762 2.437724322080612 -22.454193234443665 -7.83774733543396 -2.796630375087261 -2.624187469482422 -2.292625531554222 4.029458798468113 -7.189314588904381 0.20431526005268097 -5.639817863702774 -0.6713911145925522 1.1871742084622383 13.918698728084564 12.712446302175522 33.802659809589386 -23.810961842536926 -16.750486493110657 52.6445209980011 -1.7746574431657791 -12.06868663430214 0.015786057338118553 -0.22405866533517838 -4.8064253479242325 8.307732045650482 12.07678958773613 16.192879378795624 -2.800977900624275 -4.8383791744709015 -0.37235372699797153 9.30617094039917 11.230523139238358 14.374811053276062 0.9730088710784912 1.4464613422751427 3.50236214697361 -1.895877867937088 -2.633032388985157 2.1491608768701553 -6.851809546351433 8.860901445150375 -6.998861655592918 -4.000986814498901 14.654863178730011 -0.7530075497925282 -14.490805864334106 -2.6574498787522316 3.1871066987514496 4.992764443159103 4.037861153483391 10.464638471603394 0.3414338082075119 0.5928946752101183 -4.8294444009661674 4.140331596136093 -39.64774310588837 21.51769995689392 -40.30032992362976 23.91959398984909 -19.946452528238297 -54.577224254608154 4.117196202278137 3.0866505950689316 1.2139362841844559 2.8413300588726997 -9.908390566706657 -5.188865438103676 -12.048037648200989 6.745442524552345 7.043508365750313 -5.369044840335846 0.0789555162191391 7.914033383131027 -2.4623148143291473 1.4512115344405174 1.0102672688663006 5.944212377071381 -1.4677493646740913 -0.29157623648643494 0.8381584659218788 0.8296531811356544 -0.11137805879116058 -3.8559195399284363 -3.2178354263305664 2.23934143781662 -13.393213748931885 -15.757139772176743 -11.070781499147415 -11.933459043502808 -5.789914950728416 1.2876954395323992 -8.010749816894531 8.298746645450592 -3.6417625844478607 0.05728326737880707 -1.514129787683487 -3.1408385932445526 -32.18163192272186 -24.988521337509155 -35.14825165271759 -20.443919152021408 35.1940181851387 21.801499128341675 9.04014877974987 0.3445518761873245 5.586111322045326 -5.491387769579887 -6.775197610259056 13.339585661888123 32.769631147384644 -20.64614564180374 22.54468023777008 16.452946364879608 45.4446941614151 -10.034052059054375 -1.0008845664560795 -0.20292185246944427 16.374424695968628
0.08443033322691917 62.22511672973633 0.5081672817468643 -38.58200490474701 -0.35056840628385544 -14.270805716514587 -2.300991676747799 28.051770329475403 -6.738924086093903 -20.24332880973816 -20.115481317043304 -11.44668236374855 -9.697271212935448 25.013404190540314 -23.27588528394699 7.683451920747757 -32.58351802825928 -10.294055342674255 -8.87658029794693 -10.64337283372879 -6.023492440581322 -0.12441392987966537 -5.7045697420835495 -1.6270648688077927 -5.346806645393372 -0.76975978910923 -10.784351080656052 33.27162265777588 19.036177843809128 29.998560547828674 -36.36445641517639 -38.04431855678558 70.6297892332077 -0.22419311106204987 -36.8110066652298 2.363920658826828 -3.7826741114258766 -10.596497878432274 21.791301369667053 21.70477733016014 24.286058843135834 -3.8696370273828506 -6.320213824510574 -6.2227316200733185 13.03251028060913 5.966451913118362 15.625187158584595 -0.5382254719734192 5.111560486257076 10.250234082341194 -13.655446618795395 2.8258879110217094 17.504232823848724 -7.756845876574516 -0.4165215790271759 -15.846010744571686 -9.516837000846863 17.06442967057228 9.250570088624954 -22.548266351222992 -16.253100335597992 14.005351513624191 11.268817037343979 5.399595871567726 2.818175218999386 3.6906518787145615 -2.948499731719494 -11.684124916791916 5.887334793806076 -68.48043859004974 30.57366371154785 -31.795517206192017 26.229818165302277 -22.586629986763 -68.85737478733063 12.690649330615997 8.347589001059532 11.903930604457855 0.547901876270771 -19.367891997098923 8.707609847187996 -14.124834537506104 4.215359352529049 18.79860520362854 -15.54501861333847 -2.1117977052927017 6.79061159491539 -16.764940917491913 2.305307351052761 7.8951385617256165 9.27232950925827 -9.49445866048336 1.1098726093769073 2.213163413107395 5.217382349073887 3.443966433405876 5.096301734447479 8.74550610780716 6.952272355556488 -10.705382153391838 -12.161851823329926 -32.68465608358383 -17.58331373333931 -19.31112438440323 8.519930317997932 -8.793981671333313 19.71187859773636 -7.488592118024826 -9.630405083298683 -10.938457399606705 -10.448476821184158 -30.180130004882812 -37.25962221622467 -27.21359610557556 -32.663742899894714 70.84467709064484 35.50884246826172 9.064725860953331 3.1140346080064774 -5.252588018774986 -3.7588953226804733 -8.12842570245266 14.152058959007263 50.02073585987091 -38.05984854698181 46.79303526878357 39.2413455247879 54.017634987831116 -40.12467473745346 4.704359248280525 -5.2231427282094955 9.56569142639637
0.1345544308423996 77.53341674804688 0.9875033050775528 -59.74709630012512 -22.61796087026596 -16.210235953330994 -6.9174304604530334 33.69131863117218 -7.455661296844482 -4.062269255518913 -11.767513453960419 -12.617903798818588 -3.668193742632866 21.526398360729218 -23.88463944196701 3.956093341112137 -28.119646310806274 -6.614568829536438 -3.772922269999981 -7.107422053813934 -6.4316656440496445 2.6977742090821266 -11.375626623630524 -5.210496112704277 -7.977399230003357 0.9522344917058945 1.4652012661099434 18.300826102495193 11.099118366837502 44.385897517204285 -30.69420486688614 -28.0348938703537 67.95590043067932 -3.918911889195442 -27.178110480308533 -5.8608801662921906 -1.5326977148652077 -7.992861494421959 16.838613152503967 18.121590167284012 22.10248589515686 -3.851794973015785 -5.291457921266556 -2.1720166504383087 12.147574424743652 14.979441314935684 17.779279947280884 1.9650587439537048 5.4884108528494835 6.15342803299427 -9.225319772958755 0.032482556998729706 7.75250606238842 -7.3651521652936935 6.402522772550583 -15.147316753864288 -5.468278527259827 18.73415306210518 4.211568385362625 -19.879819750785828 -7.209206521511078 11.463336199522018 7.308272570371628 7.110790237784386 12.507601976394653 2.105114981532097 -2.8445131704211235 -10.989561527967453 5.993550270795822 -48.21418762207031 22.742621898651123 -49.60444092750549 28.04019659757614 -15.707543045282364 -63.77610146999359 5.520637929439545 -2.5345299392938614 8.719703927636147 1.7620037868618965 -12.458231896162033 -2.312677726149559 -17.71324396133423 9.79995958507061 17.46777355670929 -11.440761387348175 -3.130425587296486 9.45928618311882 -10.857488214969635 -0.7140016928315163 6.054692566394806 8.79419356584549 -5.089195556938648 -2.328891009092331 3.695019520819187 -0.7226913794875145 2.137049362063408 -3.4475746750831604 1.6715660691261292 5.40140300989151 -16.56511902809143 -18.066651821136475 -23.74596655368805 -18.862735480070114 -12.386508285999298 5.991850420832634 -11.335508823394775 14.49707955121994 -4.433277100324631 -2.752990499138832 -2.972039133310318 -6.331342309713364 -38.54280710220337 -33.06951820850372 -31.160847544670105 -29.90677535533905 51.240336298942566 30.50693839788437 5.957290157675743 6.939355507493019 2.3429880291223526 -5.918223783373833 -9.738448485732079 17.17035949230194 40.12702167034149 -25.733475387096405 30.772613883018494 22.49964863061905 48.344483971595764 -14.964332431554794 3.3548057824373245 4.0987298637628555 18.64280104637146
0.17903823778033257 79.69044494628906 1.5423854738473892 -62.863624691963196 -24.696554839611053 -21.219744086265564 -6.010870635509491 34.49810564517975 -8.011846840381622 -3.3878331631422043 -10.141687095165253 -13.64806517958641 -3.1821586936712265 19.644303023815155 -23.211812674999237 2.59870246052742 -25.330776572227478 -5.942578911781311 -4.476543478667736 -6.1359903216362 -8.330819830298424 3.3692384138703346 -11.452825963497162 -4.771633073687553 -9.261034727096558 1.8640755861997604 3.4529970958828926 12.564554661512375 10.959632769227028 47.222848534584045 -28.301483988761902 -24.56788659095764 66.40051424503326 -1.9488615542650223 -26.878201961517334 -4.698410779237747 -2.2079813852906227 -8.535112962126732 16.160534620285034 17.578727155923843 22.4314346909523 -4.563197270035744 -4.672961980104446 -1.5423627197742462 11.877508163452148 17.355894595384598 17.084823846817017 1.785254180431366 5.9760260581970215 6.433112695813179 -9.07764807343483 -0.1448168233036995 5.691389366984367 -9.869777485728264 8.808432072401047 -15.270022451877594 -6.305948495864868 18.71900662779808 3.3195193111896515 -21.630883812904358 -7.583959400653839 9.163374155759811 7.467198818922043 8.091528564691544 14.265146255493164 1.3855104893445969 -1.1430162470787764 -11.444212049245834 6.214102953672409 -43.293508887290955 21.39984369277954 -52.89899826049805 29.236885607242584 -14.080241471529007 -60.750290751457214 5.11200875043869 -1.840851679444313 6.130449548363686 1.6770367696881294 -12.894208878278732 -3.242849037051201 -17.50349521636963 12.556136548519135 16.559250354766846 -11.575499475002289 -2.010496035218239 10.149381011724472 -9.129434823989868 -2.051667608320713 5.6843385100364685 8.279424011707306 -4.420416243374348 -2.569195479154587 3.2127368822693825 0.31293097883462906 2.9262464493513107 -4.368591606616974 1.0769149661064148 7.917223870754242 -16.3821280002594 -19.249929785728455 -22.610169053077698 -19.488588720560074 -11.084203943610191 4.955201782286167 -11.212363243103027 14.983149468898773 -2.2877834737300873 -2.7578184753656387 -3.0926741659641266 -3.5526300966739655 -40.250526666641235 -29.695894718170166 -31.08329951763153 -32.55965173244476 45.523438453674316 33.216141164302826 9.339062198996544 8.125380054116249 3.343012109398842 -6.076613590121269 -11.0934629291296 19.14869248867035 39.866042733192444 -21.799184381961823 28.541654348373413 24.669362604618073 44.82651472091675 -13.733454644680023 2.681699898093939 4.745657220482826 16.76342010498047
